# Blender 4.2.3 LTS
# www.blender.org
mtllib spikeball.mtl
o Cone
v 0.000000 -1.000000 0.000000
v 0.000000 0.000000 -1.000000
v 1.000000 0.000000 0.000000
v 0.000000 0.000000 1.000000
v -1.000000 0.000000 0.000000
v 0.000000 1.000000 0.000000
vn 0.5774 -0.5774 -0.5774
vn 0.5774 0.5774 -0.5774
vn 0.5774 -0.5774 0.5774
vn 0.5774 0.5774 0.5774
vn -0.5774 -0.5774 0.5774
vn -0.5774 0.5774 0.5774
vn -0.5774 -0.5774 -0.5774
vn -0.5774 0.5774 -0.5774
vt 0.750000 0.250000
vt 0.750000 0.490000
vt 0.990000 0.250000
vt 0.250000 0.490000
vt 0.250000 0.250000
vt 0.490000 0.250000
vt 0.750000 0.010000
vt 0.250000 0.010000
vt 0.510000 0.250000
vt 0.010000 0.250000
s 0
f 1/1/1 2/2/1 3/3/1
f 2/4/2 6/5/2 3/6/2
f 1/1/3 3/3/3 4/7/3
f 3/6/4 6/5/4 4/8/4
f 1/1/5 4/7/5 5/9/5
f 4/8/6 6/5/6 5/10/6
f 1/1/7 5/9/7 2/2/7
f 5/10/8 6/5/8 2/4/8
o Cone.001
v 0.000000 0.000000 0.000000
v -0.187500 0.265165 -0.187500
v 0.265165 -0.000000 -0.265165
v 0.187500 -0.265165 0.187500
v -0.265165 0.000000 0.265165
v 0.750000 1.060660 0.750000
vn -0.5000 -0.7071 -0.5000
vn 0.2312 0.6155 -0.7535
vn 0.9276 -0.3693 -0.0572
vn -0.0572 -0.3693 0.9276
vn -0.7535 0.6155 0.2312
vt 0.750000 0.250000
vt 0.750000 0.490000
vt 0.990000 0.250000
vt 0.250000 0.490000
vt 0.250000 0.250000
vt 0.490000 0.250000
vt 0.750000 0.010000
vt 0.250000 0.010000
vt 0.510000 0.250000
vt 0.010000 0.250000
s 0
f 7/11/9 8/12/9 9/13/9
f 8/14/10 12/15/10 9/16/10
f 7/11/9 9/13/9 10/17/9
f 9/16/11 12/15/11 10/18/11
f 7/11/9 10/17/9 11/19/9
f 10/18/12 12/15/12 11/20/12
f 7/11/9 11/19/9 8/12/9
f 11/20/13 12/15/13 8/14/13
o Cone.002
v 0.000000 0.000000 0.000000
v -0.187500 0.265165 0.187500
v -0.265165 -0.000000 -0.265165
v 0.187500 -0.265165 -0.187500
v 0.265165 0.000000 0.265165
v 0.750000 1.060660 -0.750000
vn -0.5000 -0.7071 0.5000
vn -0.7535 0.6155 -0.2312
vn -0.0572 -0.3693 -0.9276
vn 0.9276 -0.3693 0.0572
vn 0.2312 0.6155 0.7535
vt 0.750000 0.250000
vt 0.750000 0.490000
vt 0.990000 0.250000
vt 0.250000 0.490000
vt 0.250000 0.250000
vt 0.490000 0.250000
vt 0.750000 0.010000
vt 0.250000 0.010000
vt 0.510000 0.250000
vt 0.010000 0.250000
s 0
f 13/21/14 14/22/14 15/23/14
f 14/24/15 18/25/15 15/26/15
f 13/21/14 15/23/14 16/27/14
f 15/26/16 18/25/16 16/28/16
f 13/21/14 16/27/14 17/29/14
f 16/28/17 18/25/17 17/30/17
f 13/21/14 17/29/14 14/22/14
f 17/30/18 18/25/18 14/24/18
o Cone.003
v 0.000000 0.000000 0.000000
v 0.187500 0.265165 0.187500
v -0.265165 -0.000000 0.265165
v -0.187500 -0.265165 -0.187500
v 0.265165 0.000000 -0.265165
v -0.750000 1.060660 -0.750000
vn 0.5000 -0.7071 0.5000
vn -0.2312 0.6155 0.7535
vn -0.9276 -0.3693 0.0572
vn 0.0572 -0.3693 -0.9276
vn 0.7535 0.6155 -0.2312
vt 0.750000 0.250000
vt 0.750000 0.490000
vt 0.990000 0.250000
vt 0.250000 0.490000
vt 0.250000 0.250000
vt 0.490000 0.250000
vt 0.750000 0.010000
vt 0.250000 0.010000
vt 0.510000 0.250000
vt 0.010000 0.250000
s 0
f 19/31/19 20/32/19 21/33/19
f 20/34/20 24/35/20 21/36/20
f 19/31/19 21/33/19 22/37/19
f 21/36/21 24/35/21 22/38/21
f 19/31/19 22/37/19 23/39/19
f 22/38/22 24/35/22 23/40/22
f 19/31/19 23/39/19 20/32/19
f 23/40/23 24/35/23 20/34/23
o Cone.004
v 0.000000 0.000000 0.000000
v 0.187500 0.265165 -0.187500
v 0.265165 -0.000000 0.265165
v -0.187500 -0.265165 0.187500
v -0.265165 0.000000 -0.265165
v -0.750000 1.060660 0.750000
vn 0.5000 -0.7071 -0.5000
vn 0.7535 0.6155 0.2312
vn 0.0572 -0.3693 0.9276
vn -0.9276 -0.3693 -0.0572
vn -0.2312 0.6155 -0.7535
vt 0.750000 0.250000
vt 0.750000 0.490000
vt 0.990000 0.250000
vt 0.250000 0.490000
vt 0.250000 0.250000
vt 0.490000 0.250000
vt 0.750000 0.010000
vt 0.250000 0.010000
vt 0.510000 0.250000
vt 0.010000 0.250000
s 0
f 25/41/24 26/42/24 27/43/24
f 26/44/25 30/45/25 27/46/25
f 25/41/24 27/43/24 28/47/24
f 27/46/26 30/45/26 28/48/26
f 25/41/24 28/47/24 29/49/24
f 28/48/27 30/45/27 29/50/27
f 25/41/24 29/49/24 26/42/24
f 29/50/28 30/45/28 26/44/28
o Cone.005
v 0.000000 0.000000 0.000000
v -0.187500 -0.265165 -0.187500
v -0.265165 -0.000000 0.265165
v 0.187500 0.265165 0.187500
v 0.265165 0.000000 -0.265165
v 0.750000 -1.060660 0.750000
vn -0.5000 0.7071 -0.5000
vn -0.7535 -0.6155 0.2312
vn -0.0572 0.3693 0.9276
vn 0.9276 0.3693 -0.0572
vn 0.2312 -0.6155 -0.7535
vt 0.750000 0.250000
vt 0.750000 0.490000
vt 0.990000 0.250000
vt 0.250000 0.490000
vt 0.250000 0.250000
vt 0.490000 0.250000
vt 0.750000 0.010000
vt 0.250000 0.010000
vt 0.510000 0.250000
vt 0.010000 0.250000
s 0
f 31/51/29 32/52/29 33/53/29
f 32/54/30 36/55/30 33/56/30
f 31/51/29 33/53/29 34/57/29
f 33/56/31 36/55/31 34/58/31
f 31/51/29 34/57/29 35/59/29
f 34/58/32 36/55/32 35/60/32
f 31/51/29 35/59/29 32/52/29
f 35/60/33 36/55/33 32/54/33
o Cone.006
v 0.000000 0.000000 0.000000
v -0.187500 -0.265165 0.187500
v 0.265165 -0.000000 0.265165
v 0.187500 0.265165 -0.187500
v -0.265165 0.000000 -0.265165
v 0.750000 -1.060660 -0.750000
vn -0.5000 0.7071 0.5000
vn 0.2312 -0.6155 0.7535
vn 0.9276 0.3693 0.0572
vn -0.0572 0.3693 -0.9276
vn -0.7535 -0.6155 -0.2312
vt 0.750000 0.250000
vt 0.750000 0.490000
vt 0.990000 0.250000
vt 0.250000 0.490000
vt 0.250000 0.250000
vt 0.490000 0.250000
vt 0.750000 0.010000
vt 0.250000 0.010000
vt 0.510000 0.250000
vt 0.010000 0.250000
s 0
f 37/61/34 38/62/34 39/63/34
f 38/64/35 42/65/35 39/66/35
f 37/61/34 39/63/34 40/67/34
f 39/66/36 42/65/36 40/68/36
f 37/61/34 40/67/34 41/69/34
f 40/68/37 42/65/37 41/70/37
f 37/61/34 41/69/34 38/62/34
f 41/70/38 42/65/38 38/64/38
o Cone.007
v 0.000000 0.000000 0.000000
v 0.187500 -0.265165 0.187500
v 0.265165 0.000000 -0.265165
v -0.187500 0.265165 -0.187500
v -0.265165 -0.000000 0.265165
v -0.750000 -1.060660 -0.750000
vn 0.5000 0.7071 0.5000
vn 0.7535 -0.6155 -0.2312
vn 0.0572 0.3693 -0.9276
vn -0.9276 0.3693 0.0572
vn -0.2312 -0.6155 0.7535
vt 0.750000 0.250000
vt 0.750000 0.490000
vt 0.990000 0.250000
vt 0.250000 0.490000
vt 0.250000 0.250000
vt 0.490000 0.250000
vt 0.750000 0.010000
vt 0.250000 0.010000
vt 0.510000 0.250000
vt 0.010000 0.250000
s 0
f 43/71/39 44/72/39 45/73/39
f 44/74/40 48/75/40 45/76/40
f 43/71/39 45/73/39 46/77/39
f 45/76/41 48/75/41 46/78/41
f 43/71/39 46/77/39 47/79/39
f 46/78/42 48/75/42 47/80/42
f 43/71/39 47/79/39 44/72/39
f 47/80/43 48/75/43 44/74/43
o Cone.008
v 0.000000 0.000000 0.000000
v 0.187500 -0.265165 -0.187500
v -0.265165 0.000000 -0.265165
v -0.187500 0.265165 0.187500
v 0.265165 -0.000000 0.265165
v -0.750000 -1.060660 0.750000
vn 0.5000 0.7071 -0.5000
vn -0.2312 -0.6155 -0.7535
vn -0.9276 0.3693 -0.0572
vn 0.0572 0.3693 0.9276
vn 0.7535 -0.6155 0.2312
vt 0.750000 0.250000
vt 0.750000 0.490000
vt 0.990000 0.250000
vt 0.250000 0.490000
vt 0.250000 0.250000
vt 0.490000 0.250000
vt 0.750000 0.010000
vt 0.250000 0.010000
vt 0.510000 0.250000
vt 0.010000 0.250000
s 0
f 49/81/44 50/82/44 51/83/44
f 50/84/45 54/85/45 51/86/45
f 49/81/44 51/83/44 52/87/44
f 51/86/46 54/85/46 52/88/46
f 49/81/44 52/87/44 53/89/44
f 52/88/47 54/85/47 53/90/47
f 49/81/44 53/89/44 50/82/44
f 53/90/48 54/85/48 50/84/48
