# Blender 4.5.0
# www.blender.org
mtllib shippingcontainer_doors.mtl
o Exterior
v -1.175000 -1.195000 2.900000
v 0.000000 -1.195000 2.900000
v 1.175000 -1.195000 2.900000
v 1.175000 0.000000 2.900000
v -1.175000 0.000000 2.900000
v 1.175000 1.195000 2.900000
v 0.000000 1.195000 2.900000
v -1.175000 1.195000 2.900000
v -1.175000 -1.195000 -2.900000
v -1.175000 -0.000000 -2.900000
v 1.175000 -1.195000 -2.900000
v 0.000000 -1.195000 -2.900000
v -1.175000 1.195000 -2.900000
v 0.000000 1.195000 -2.900000
v 1.175000 1.195000 -2.900000
v 1.175000 -0.000000 -2.900000
v 0.000000 0.000000 2.900000
v 0.000000 -0.000000 -2.900000
vn -0.0000 -0.0000 -1.0000
vn -0.0000 -0.0000 1.0000
vt 0.491632 0.500000
vt 0.491632 0.000000
vt 0.983263 0.000000
vt 0.983263 0.500000
vt 0.491632 0.500000
vt 0.000000 0.500000
vt 0.000000 0.000000
vt 0.491632 0.000000
vt 0.983264 0.500000
vt 0.983263 0.000000
vt 0.491632 1.000000
vt 0.000000 1.000000
vt 0.983264 1.000000
vt 0.000000 0.500000
vt 0.000000 0.000000
vt 0.491632 1.000000
vt 0.983263 1.000000
vt 0.000000 1.000000
s 0
usemtl Material.001
f 18/1/1 14/2/1 15/3/1 16/4/1
f 17/5/2 5/6/2 1/7/2 2/8/2
f 4/9/2 17/5/2 2/8/2 3/10/2
f 7/11/2 8/12/2 5/6/2 17/5/2
f 6/13/2 7/11/2 17/5/2 4/9/2
f 10/14/1 13/15/1 14/2/1 18/1/1
f 12/16/1 18/1/1 16/4/1 11/17/1
f 9/18/1 10/14/1 18/1/1 12/16/1
