# Blender 4.4.1
# www.blender.org
o Cube
v -0.031250 -0.250000 0.250000
v 0.250000 -0.250000 0.031250
v -0.031250 0.250000 0.250000
v 0.250000 0.250000 0.031250
v -0.031250 -0.187500 0.187500
v 0.187500 -0.187500 0.031250
v -0.031250 0.250000 0.187500
v 0.187500 0.250000 0.031250
v 0.250000 -0.250000 -0.031250
v 0.031250 -0.250000 0.250000
v 0.250000 0.250000 -0.031250
v 0.031250 0.250000 0.250000
v 0.187500 -0.187500 -0.031250
v 0.031250 -0.187500 0.187500
v 0.187500 0.250000 -0.031250
v 0.031250 0.250000 0.187500
v -0.031250 -0.187500 -0.187500
v -0.187500 -0.187500 0.031250
v -0.031250 -0.250000 -0.250000
v -0.250000 -0.250000 0.031250
v 0.031250 -0.187500 -0.187500
v -0.187500 -0.187500 -0.031250
v 0.031250 -0.250000 -0.250000
v -0.250000 -0.250000 -0.031250
v -0.187500 0.250000 0.031250
v -0.031250 0.250000 -0.187500
v -0.250000 0.250000 0.031250
v -0.031250 0.250000 -0.250000
v -0.187500 0.250000 -0.031250
v 0.031250 0.250000 -0.187500
v -0.250000 0.250000 -0.031250
v 0.031250 0.250000 -0.250000
v -0.031250 -0.187500 -0.031250
v -0.031250 -0.187500 0.031250
v -0.031250 -0.250000 0.031250
v -0.031250 -0.250000 -0.031250
v 0.031250 -0.250000 0.031250
v 0.031250 -0.250000 -0.031250
v 0.031250 -0.187500 0.031250
v 0.031250 -0.187500 -0.031250
vn -1.0000 -0.0000 -0.0000
vn -0.0000 -0.0000 -1.0000
vn 1.0000 -0.0000 -0.0000
vn -0.0000 -0.0000 1.0000
vn -0.0000 1.0000 -0.0000
vn -0.0000 -1.0000 -0.0000
vt 0.397748 0.500000
vt 0.397748 0.000000
vt 0.460248 0.000000
vt 0.460248 0.437500
vt 0.397748 0.937500
vt 0.397748 0.500000
vt 0.460248 0.500000
vt 0.460248 0.937500
vt 0.460248 0.437500
vt 0.460248 0.000000
vt 0.522748 0.000000
vt 0.522748 0.500000
vt 0.585248 0.000000
vt 0.585248 0.500000
vt 0.772748 0.718750
vt 0.772748 0.562500
vt 0.835248 0.500000
vt 0.835248 0.718750
vt 0.187500 0.925857
vt 0.125000 0.863357
vt 0.125000 0.707107
vt 0.187500 0.707107
vt 0.371859 0.897747
vt 0.371859 0.960247
vt 0.309359 0.960247
vt 0.309359 0.897747
vt 0.647748 0.437500
vt 0.647748 0.000000
vt 0.250000 0.707107
vt 0.250000 0.925857
vt 0.187500 0.863357
vt 0.187500 0.707107
vt 0.835248 0.562500
vt 0.897748 0.500000
vt 0.897748 0.718750
vt 0.154680 0.198874
vt 0.198874 0.243068
vt 0.044194 0.397748
vt -0.000000 0.353553
vt 0.198874 0.154680
vt 0.353553 -0.000000
vt 0.397748 0.044194
vt 0.243068 0.198874
vt 0.154680 0.596621
vt 0.044194 0.707107
vt 0.000000 0.662913
vt 0.110485 0.552427
vt 0.154680 0.508233
vt 0.265165 0.397748
vt 0.309359 0.441942
vt 0.198874 0.552427
vt 0.897748 0.562500
vt 0.960248 0.500000
vt 0.960248 0.562500
vt 0.710248 0.500000
vt 0.710248 0.000000
vt 0.772748 0.500000
vt 0.772748 0.000000
vt 0.522748 0.937500
vt 0.835248 0.000000
vt 0.835248 0.437500
vt 0.647748 0.937500
vt 0.647748 0.500000
vt 0.710248 0.937500
vt 0.897748 0.000000
vt 0.309359 0.897748
vt 0.309359 0.397748
vt 0.371859 0.397748
vt 0.371859 0.897748
vt 0.000000 0.769607
vt 0.062500 0.707107
vt 0.062500 0.925857
vt 0.000000 0.925857
vt 0.835248 0.937500
vt 0.772748 0.875000
vt 0.960248 0.625000
vt 0.897748 0.625000
vt 0.960248 0.437500
vt 0.960248 0.000000
vt 0.897748 0.937500
vt 0.835248 0.875000
vt 0.062500 0.925857
vt 0.062500 0.769607
vt 0.125000 0.707107
vt 0.125000 0.925857
vt 0.397748 0.353553
vt 0.353553 0.397748
vt -0.000000 0.044194
vt 0.044194 -0.000000
vt 0.000000 0.441942
vt 0.044194 0.397748
vt 0.309359 0.662913
vt 0.265165 0.707107
vt 0.960248 0.687500
vt 0.897748 0.687500
vt 0.647748 1.000000
vt 0.585248 0.937500
vt 0.585248 1.000000
vt 0.522748 1.000000
vt 0.772748 0.937500
s 0
f 1/1/1 3/2/1 7/3/1 5/4/1
f 5/5/2 7/6/2 16/7/2 14/8/2
f 14/9/3 16/10/3 12/11/3 10/12/3
f 10/12/4 12/11/4 3/13/4 1/14/4
f 33/15/1 17/16/1 19/17/1 36/18/1
f 1/19/1 5/20/1 34/21/1 35/22/1
f 16/23/5 7/24/5 3/25/5 12/26/5
f 21/27/3 23/14/3 32/13/3 30/28/3
f 38/29/3 23/30/3 21/31/3 40/32/3
f 14/33/3 10/34/3 37/35/3 39/18/3
f 38/36/6 36/37/6 19/38/6 23/39/6
f 37/40/6 10/41/6 1/42/6 35/43/6
f 40/44/5 21/45/5 17/46/5 33/47/5
f 34/48/5 5/49/5 14/50/5 39/51/5
f 26/52/5 30/34/5 32/53/5 28/54/5
f 19/55/1 17/27/1 26/28/1 28/56/1
f 23/57/2 19/55/2 28/56/2 32/58/2
f 17/59/4 21/8/4 30/7/4 26/12/4
f 2/57/4 4/58/4 8/60/4 6/61/4
f 6/62/1 8/63/1 15/55/1 13/64/1
f 13/61/2 15/60/2 11/65/2 9/34/2
f 9/66/3 11/67/3 4/68/3 2/69/3
f 18/70/4 20/71/4 35/72/4 34/73/4
f 37/18/4 2/74/4 6/75/4 39/15/4
f 15/76/5 8/77/5 4/52/5 11/54/5
f 22/78/2 24/34/2 31/65/2 29/79/2
f 24/80/2 22/81/2 33/18/2 36/35/2
f 40/82/2 13/83/2 9/84/2 38/85/2
f 20/86/6 24/87/6 36/37/6 35/43/6
f 9/88/6 2/89/6 37/40/6 38/36/6
f 33/47/5 22/90/5 18/91/5 34/48/5
f 39/51/5 6/92/5 13/93/5 40/44/5
f 25/77/5 29/76/5 31/94/5 27/95/5
f 20/96/4 18/97/4 25/14/4 27/63/4
f 24/98/1 20/99/1 27/12/1 31/14/1
f 18/100/3 22/64/3 29/55/3 25/57/3
f 33/47/5 34/48/5 39/51/5 40/44/5
f 38/36/6 37/40/6 35/43/6 36/37/6
