# Blender 4.2.1 LTS
# www.blender.org
mtllib trash_bag.mtl
o Sphere
v 0.044194 0.393013 -0.054194
v 0.306186 0.250000 -0.306186
v 0.353553 0.000000 -0.283553
v 0.367423 -0.250000 -0.367423
v 0.381838 -0.431524 -0.381838
v 0.062500 0.373013 0.000000
v 0.373013 0.250000 0.000000
v 0.430000 0.000000 0.000000
v 0.519615 -0.250000 0.000000
v 0.490000 -0.431524 0.000000
v 0.044194 0.383013 0.064194
v 0.306186 0.250000 0.306186
v 0.353553 0.000000 0.353553
v 0.367423 -0.250000 0.367423
v 0.341838 -0.431524 0.381838
v 0.000000 0.393013 0.112500
v 0.000000 0.250000 0.393013
v 0.000000 0.000000 0.420000
v -0.000000 -0.250000 0.539615
v -0.000000 -0.431524 0.640000
v 0.312500 0.553012 0.110000
v -0.044194 0.393013 0.044194
v -0.266186 0.250000 0.286186
v -0.353553 0.000000 0.273553
v -0.367423 -0.250000 0.367423
v -0.351838 -0.431524 0.381838
v 0.000000 -0.511909 0.000000
v -0.062500 0.403013 -0.040000
v -0.373013 0.250000 -0.030000
v -0.440000 0.000000 0.000000
v -0.519615 -0.250000 0.000000
v -0.440000 -0.431524 0.000000
v -0.044194 0.423013 -0.094194
v -0.306186 0.250000 -0.306186
v -0.353553 0.000000 -0.353553
v -0.367423 -0.250000 -0.367423
v -0.381838 -0.431524 -0.381838
v 0.000000 0.453013 -0.122500
v 0.000000 0.250000 -0.433013
v 0.000000 0.000000 -0.430000
v -0.000000 -0.250000 -0.549615
v -0.000000 -0.431524 -0.610000
v 0.220971 0.610204 -0.103441
v 0.220971 0.495821 0.323442
v -0.000000 0.472132 0.411852
v -0.220971 0.495821 0.323442
v -0.312500 0.553012 0.110000
v -0.220971 0.610204 -0.103441
v -0.000000 0.633893 -0.191852
v -0.000000 0.433012 0.020000
vn 0.4710 0.1959 -0.8601
vn 0.3827 -0.0111 -0.9238
vn -0.5130 -0.8584 -0.0045
vn 0.0778 -0.9884 -0.1303
vn 0.3875 0.3567 -0.8501
vn 0.3515 0.8616 -0.3663
vn 0.9543 0.1887 -0.2318
vn -0.2209 -0.9477 0.2305
vn 0.1617 -0.9858 -0.0458
vn 0.9151 0.2433 -0.3214
vn 0.4047 0.9134 -0.0449
vn 0.9443 -0.0265 -0.3281
vn 0.1860 -0.9458 0.2661
vn 0.1616 -0.9849 0.0627
vn 0.9337 0.2015 0.2961
vn 0.3849 0.9208 0.0636
vn 0.9209 -0.1254 0.3691
vn 0.9536 0.2186 0.2071
vn 0.0937 -0.9878 0.1241
vn 0.3040 0.2536 0.9183
vn 0.1760 0.9041 0.3894
vn 0.5051 0.2276 0.8325
vn 0.2232 0.1640 0.9609
vn 0.6435 -0.6235 -0.4439
vn -0.0911 -0.9881 0.1241
vn -0.3751 0.3728 0.8487
vn -0.2222 0.8919 0.3938
vn -0.4982 0.2419 0.8326
vn -0.3767 0.0923 0.9217
vn 0.5263 -0.8479 0.0641
vn -0.1796 -0.9829 0.0415
vn -0.9111 0.2340 0.3392
vn -0.4232 0.8928 0.1546
vn -0.9264 -0.2311 0.2972
vn -0.9091 0.2910 0.2979
vn -0.6411 -0.6262 -0.4437
vn -0.9333 0.1831 -0.3089
vn -0.4751 0.8772 -0.0693
vn -0.9504 -0.1601 -0.2668
vn -0.9468 0.2246 -0.2304
vn -0.1449 0.9846 -0.0983
vn -0.1797 -0.9833 -0.0274
vn -0.2780 0.8403 -0.4654
vn -0.4710 0.1959 -0.8601
vn -0.2926 0.1120 -0.9497
vn 0.3643 -0.4108 -0.8358
vn -0.0778 -0.9884 -0.1303
vn -0.3267 0.2522 -0.9108
vn -0.3196 -0.3422 -0.8836
vn 0.1938 0.7119 0.6750
vn 0.1449 0.9846 -0.0983
vn -0.3784 0.9218 0.0847
vn 0.4267 0.8110 0.4003
vn -0.4267 0.8110 0.4003
vn 0.3784 0.9218 0.0847
vn -0.1938 0.7119 0.6750
vt 0.797922 0.284174
vt 0.807138 0.208801
vt 0.975354 0.205987
vt 0.979419 0.280650
vt 0.826105 0.104433
vt 0.823965 0.001959
vt 0.959842 0.000000
vt 0.983002 0.102171
vt 0.006440 0.935363
vt 0.034732 0.914699
vt 0.170274 0.931545
vt 0.106554 1.000000
vt 0.202411 0.226201
vt 0.328065 0.440209
vt 0.145909 0.440209
vt 0.192125 0.766279
vt 0.162629 0.642239
vt 0.170797 0.610762
vt 0.298496 0.681940
vt 0.597402 0.037930
vt 0.701636 0.029805
vt 0.698141 0.149173
vt 0.593404 0.147488
vt 0.052859 0.886757
vt 0.165898 0.834734
vt 0.027858 0.328499
vt 0.494920 0.005229
vt 0.486961 0.143592
vt 0.171403 0.587465
vt 0.290472 0.553594
vt 0.420281 -0.000000
vt 0.414624 0.147179
vt 0.027226 0.878556
vt 0.095989 0.766279
vt -0.000000 0.162850
vt 0.597402 0.295733
vt 0.494920 0.302582
vt 0.157255 0.564101
vt 0.229805 0.440209
vt 0.422372 0.311729
vt 0.701636 0.277599
vt 0.066200 0.000000
vt 0.701657 0.643845
vt 0.698824 0.543313
vt 0.819324 0.551658
vt 0.809601 0.663439
vt 0.134692 0.549908
vt 0.099468 0.440209
vt 0.514135 0.397157
vt 0.440249 0.439358
vt 0.714076 0.439358
vt 0.813525 0.449686
vt 0.298496 0.572832
vt 0.304448 0.555988
vt 0.397199 0.604227
vt 0.383179 0.676883
vt 0.244084 0.016878
vt 0.975499 0.537458
vt 0.975255 0.646564
vt 0.124947 0.581818
vt 0.006608 0.512175
vt 0.800274 0.746036
vt 0.974530 0.720000
vt 0.930533 0.439358
vt 0.000000 0.882690
vt 0.001499 0.766279
vt 0.355098 0.132797
vt 0.490562 0.441079
vt 0.593485 0.476605
vt 0.591007 0.574971
vt 0.485919 0.569182
vt 0.127444 0.617030
vt 0.000000 0.648946
vt 0.416898 0.439358
vt 0.414624 0.580282
vt 0.698824 0.478270
vt 0.695709 0.591198
vt 0.774063 0.286118
vt 0.776213 0.310889
vt 0.701636 0.381803
vt 0.701636 0.284174
vt 0.595028 0.724175
vt 0.492370 0.731183
vt 0.141259 0.636230
vt 0.057301 0.750489
vt 0.417684 0.737502
vt 0.698824 0.707674
vt 0.848608 0.854302
vt 0.698824 0.912794
vt 0.698824 0.814710
vt 0.414624 0.279507
vt 0.506210 0.844027
vt 0.432162 0.870100
vt 0.707569 0.103252
vt 0.731744 0.000000
vt 0.325476 0.525480
vt 0.397199 0.506193
vt 0.701636 0.205987
vt 0.312683 0.515137
vt 0.383179 0.440209
vt 0.927398 0.915122
vt 0.927398 0.817038
vt 0.765772 0.982831
vt 0.765772 0.746036
vt 0.860451 0.983796
vt 0.860451 0.747000
vt 0.298496 0.676883
vt 0.393847 0.722355
vt 0.298496 0.774652
s 0
f 42/1/1 41/2/1 4/3/1 5/4/1
f 40/5/2 39/6/2 2/7/2 3/8/2
f 28/9/3 22/10/3 46/11/3 47/12/3
f 27/13/4 42/14/4 5/15/4
f 41/2/5 40/5/5 3/8/5 4/3/5
f 39/16/6 38/17/6 1/18/6 2/19/6
f 3/20/7 2/21/7 7/22/7 8/23/7
f 22/10/8 16/24/8 45/25/8 46/11/8
f 27/13/9 5/15/9 10/26/9
f 4/27/10 3/20/10 8/23/10 9/28/10
f 2/19/11 1/18/11 6/29/11 7/30/11
f 5/31/12 4/27/12 9/28/12 10/32/12
f 16/24/13 11/33/13 44/34/13 45/25/13
f 27/13/14 10/26/14 15/35/14
f 9/28/15 8/23/15 13/36/15 14/37/15
f 7/30/16 6/29/16 11/38/16 12/39/16
f 10/32/17 9/28/17 14/37/17 15/40/17
f 8/23/18 7/22/18 12/41/18 13/36/18
f 27/13/19 15/35/19 20/42/19
f 14/43/20 13/44/20 18/45/20 19/46/20
f 12/39/21 11/38/21 16/47/21 17/48/21
f 15/40/22 14/37/22 19/49/22 20/50/22
f 13/44/23 12/51/23 17/52/23 18/45/23
f 6/53/24 1/54/24 43/55/24 21/56/24
f 27/13/25 20/42/25 26/57/25
f 19/46/26 18/45/26 24/58/26 25/59/26
f 17/48/27 16/47/27 22/60/27 23/61/27
f 20/62/28 19/46/28 25/59/28 26/63/28
f 18/45/29 17/52/29 23/64/29 24/58/29
f 11/33/30 6/65/30 21/66/30 44/34/30
f 27/13/31 26/57/31 32/67/31
f 25/68/32 24/69/32 30/70/32 31/71/32
f 23/61/33 22/60/33 28/72/33 29/73/33
f 26/74/34 25/68/34 31/71/34 32/75/34
f 24/69/35 23/76/35 29/77/35 30/70/35
f 33/78/36 28/79/36 47/80/36 48/81/36
f 31/71/37 30/70/37 35/82/37 36/83/37
f 29/73/38 28/72/38 33/84/38 34/85/38
f 32/75/39 31/71/39 36/83/39 37/86/39
f 30/70/40 29/77/40 34/87/40 35/82/40
f 50/88/41 45/89/41 44/90/41
f 27/13/42 32/67/42 37/91/42
f 34/85/43 33/84/43 38/17/43 39/16/43
f 37/86/44 36/83/44 41/92/44 42/93/44
f 35/94/45 34/95/45 39/6/45 40/5/45
f 1/54/46 38/96/46 49/97/46 43/55/46
f 27/13/47 37/91/47 42/14/47
f 36/98/48 35/94/48 40/5/48 41/2/48
f 38/96/49 33/99/49 48/100/49 49/97/49
f 48/101/50 50/88/50 49/102/50
f 46/103/51 45/89/51 50/88/51
f 50/88/52 44/90/52 21/104/52
f 48/101/53 47/105/53 50/88/53
f 50/88/54 21/104/54 43/106/54
f 47/105/55 46/103/55 50/88/55
f 49/107/56 50/108/56 43/109/56
