# Blender 4.2.1 LTS
# www.blender.org
mtllib door_2x3.mtl
o Cube
v 2.000000 1.500000 -0.100000
v 2.000000 -1.500000 -0.100000
v 2.000000 1.500000 0.100000
v 2.000000 -1.500000 0.100000
v -0.100000 1.500000 -0.100000
v -0.100000 -1.500000 -0.100000
v -0.100000 1.500000 0.100000
v -0.100000 -1.500000 0.100000
vn -0.0000 1.0000 -0.0000
vn -0.0000 -0.0000 1.0000
vn -1.0000 -0.0000 -0.0000
vn -0.0000 -1.0000 -0.0000
vn 1.0000 -0.0000 -0.0000
vn -0.0000 -0.0000 -1.0000
vt 0.500000 0.999903
vt 0.055642 0.999903
vt 0.055642 0.944358
vt 0.500000 0.944358
vt 0.500000 0.111187
vt 0.055642 0.111187
vt 0.000097 0.944358
vt 0.000097 0.111187
vt 0.055642 0.055642
vt 0.500000 0.055642
vt 0.555545 0.111187
vt 0.555545 0.944358
vt 0.999903 0.111187
vt 0.999903 0.944358
s 0
usemtl Material.001
f 1/1/1 5/2/1 7/3/1 3/4/1
f 4/5/2 3/4/2 7/3/2 8/6/2
f 8/6/3 7/3/3 5/7/3 6/8/3
f 6/9/4 2/10/4 4/5/4 8/6/4
f 2/11/5 1/12/5 3/4/5 4/5/5
f 6/13/6 5/14/6 1/12/6 2/11/6
