# Blender 4.3.2
# www.blender.org
mtllib door_01.mtl
o Cube
v -1.250000 2.250000 0.000000
v 0.000000 2.250000 -0.250000
v 0.000000 2.250000 0.000000
v -1.250000 2.250000 -0.250000
v 0.000000 0.000000 -0.250000
v -1.250000 0.000000 -0.250000
v 0.000000 0.000000 0.000000
v -1.250000 0.000000 0.000000
vn -1.0000 -0.0000 -0.0000
vn -0.0000 1.0000 -0.0000
vn -0.0000 -1.0000 -0.0000
vn 1.0000 -0.0000 -0.0000
vn -0.0000 -0.0000 -1.0000
vn -0.0000 -0.0000 1.0000
vt 0.583318 0.833270
vt 0.500000 0.833270
vt 0.500000 0.083413
vt 0.583317 0.083413
vt 0.083413 0.833270
vt 0.500000 0.916587
vt 0.083413 0.916587
vt 0.083413 0.083413
vt 0.083413 0.000096
vt 0.500000 0.000096
vt 0.000096 0.833270
vt 0.000096 0.083413
vt 0.999904 0.833269
vt 0.999904 0.083413
s 0
usemtl Material
f 1/1/1 4/2/1 6/3/1 8/4/1
f 2/5/2 4/2/2 1/6/2 3/7/2
f 6/3/3 5/8/3 7/9/3 8/10/3
f 2/5/4 3/11/4 7/12/4 5/8/4
f 6/3/5 4/2/5 2/5/5 5/8/5
f 3/13/6 1/1/6 8/4/6 7/14/6
