# Blender 4.1.1
# www.blender.org
mtllib chain.mtl
o Torus
v 0.000000 -0.625000 0.000000
v 0.044194 -0.562500 -0.044194
v 0.000000 -0.500000 -0.000000
v -0.044194 -0.562500 0.044194
v -0.158929 -0.437500 -0.158929
v -0.076462 -0.406250 -0.164850
v -0.082382 -0.375000 -0.082382
v -0.164850 -0.406250 -0.076462
v -0.158929 -0.062500 -0.158929
v -0.076462 -0.093750 -0.164850
v -0.082382 -0.125000 -0.082382
v -0.164850 -0.093750 -0.076462
v -0.000000 0.125000 -0.000000
v 0.044194 0.062500 -0.044194
v -0.000000 -0.000000 -0.000000
v -0.044194 0.062500 0.044194
v 0.158929 -0.062500 0.158929
v 0.164850 -0.093750 0.076462
v 0.082382 -0.125000 0.082382
v 0.076462 -0.093750 0.164850
v 0.158929 -0.437500 0.158929
v 0.164850 -0.406250 0.076462
v 0.082382 -0.375000 0.082382
v 0.076462 -0.406250 0.164850
vn 0.1045 -0.5750 -0.8115
vn 0.8335 0.5473 -0.0753
vn -0.0753 0.5473 0.8335
vn -0.8115 -0.5750 0.1045
vn -0.0716 -0.0000 -0.9974
vn 0.9974 -0.0000 0.0716
vn 0.0716 -0.0000 0.9974
vn -0.9974 -0.0000 -0.0716
vn 0.1045 0.5750 -0.8115
vn 0.8335 -0.5473 -0.0753
vn -0.0753 -0.5473 0.8335
vn -0.8115 0.5750 0.1045
vn 0.8115 0.5750 -0.1045
vn 0.0753 -0.5473 -0.8335
vn -0.8335 -0.5473 0.0753
vn -0.1045 0.5750 0.8115
vn 0.8115 -0.5750 -0.1045
vn 0.0753 0.5473 -0.8335
vn -0.8335 0.5473 0.0753
vn -0.1045 -0.5750 0.8115
vt 0.500000 0.500000
vt 0.666667 0.500000
vt 0.666667 0.750000
vt 0.500000 0.750000
vt 0.666667 1.000000
vt 0.500000 1.000000
vt 0.500000 0.000000
vt 0.666667 0.000000
vt 0.666667 0.250000
vt 0.500000 0.250000
vt 0.833333 0.500000
vt 0.833333 0.750000
vt 0.833333 1.000000
vt 0.833333 0.000000
vt 0.833333 0.250000
vt 1.000000 0.500000
vt 1.000000 0.750000
vt 1.000000 1.000000
vt 1.000000 0.000000
vt 1.000000 0.250000
vt -0.000000 0.500000
vt 0.166667 0.500000
vt 0.166667 0.750000
vt -0.000000 0.750000
vt 0.166667 1.000000
vt -0.000000 1.000000
vt -0.000000 0.000000
vt 0.166667 0.000000
vt 0.166667 0.250000
vt -0.000000 0.250000
vt 0.333333 0.500000
vt 0.333333 0.750000
vt 0.333333 1.000000
vt 0.333333 0.000000
vt 0.333333 0.250000
s 0
f 1/1/1 5/2/1 6/3/1 2/4/1
f 2/4/2 6/3/2 7/5/2 3/6/2
f 3/7/3 7/8/3 8/9/3 4/10/3
f 4/10/4 8/9/4 5/2/4 1/1/4
f 5/2/5 9/11/5 10/12/5 6/3/5
f 6/3/6 10/12/6 11/13/6 7/5/6
f 7/8/7 11/14/7 12/15/7 8/9/7
f 8/9/8 12/15/8 9/11/8 5/2/8
f 9/11/9 13/16/9 14/17/9 10/12/9
f 10/12/10 14/17/10 15/18/10 11/13/10
f 11/14/11 15/19/11 16/20/11 12/15/11
f 12/15/12 16/20/12 13/16/12 9/11/12
f 13/21/13 17/22/13 18/23/13 14/24/13
f 14/24/14 18/23/14 19/25/14 15/26/14
f 15/27/15 19/28/15 20/29/15 16/30/15
f 16/30/16 20/29/16 17/22/16 13/21/16
f 17/22/6 21/31/6 22/32/6 18/23/6
f 18/23/5 22/32/5 23/33/5 19/25/5
f 19/28/8 23/34/8 24/35/8 20/29/8
f 20/29/7 24/35/7 21/31/7 17/22/7
f 21/31/17 1/1/17 2/4/17 22/32/17
f 22/32/18 2/4/18 3/6/18 23/33/18
f 23/34/19 3/7/19 4/10/19 24/35/19
f 24/35/20 4/10/20 1/1/20 21/31/20
o Torus.001
v 0.000000 -0.125000 0.000000
v -0.044194 -0.062500 -0.044194
v 0.000000 -0.000000 -0.000000
v 0.044194 -0.062500 0.044194
v -0.158929 0.062500 0.158929
v -0.164850 0.093750 0.076462
v -0.082382 0.125000 0.082382
v -0.076462 0.093750 0.164850
v -0.158929 0.437500 0.158929
v -0.164850 0.406250 0.076462
v -0.082382 0.375000 0.082382
v -0.076462 0.406250 0.164850
v -0.000000 0.625000 0.000000
v -0.044194 0.562500 -0.044194
v -0.000000 0.500000 0.000000
v 0.044194 0.562500 0.044194
v 0.158929 0.437500 -0.158929
v 0.076462 0.406250 -0.164850
v 0.082382 0.375000 -0.082382
v 0.164850 0.406250 -0.076462
v 0.158929 0.062500 -0.158929
v 0.076462 0.093750 -0.164850
v 0.082382 0.125000 -0.082382
v 0.164850 0.093750 -0.076462
vn -0.8115 -0.5750 -0.1045
vn -0.0753 0.5473 -0.8335
vn 0.8335 0.5473 0.0753
vn 0.1045 -0.5750 0.8115
vn -0.9974 -0.0000 0.0716
vn 0.0716 -0.0000 -0.9974
vn 0.9974 -0.0000 -0.0716
vn -0.0716 -0.0000 0.9974
vn -0.8115 0.5750 -0.1045
vn -0.0753 -0.5473 -0.8335
vn 0.8335 -0.5473 0.0753
vn 0.1045 0.5750 0.8115
vn -0.1045 0.5750 -0.8115
vn -0.8335 -0.5473 -0.0753
vn 0.0753 -0.5473 0.8335
vn 0.8115 0.5750 0.1045
vn -0.1045 -0.5750 -0.8115
vn -0.8335 0.5473 -0.0753
vn 0.0753 0.5473 0.8335
vn 0.8115 -0.5750 0.1045
vt 0.500000 0.500000
vt 0.666667 0.500000
vt 0.666667 0.750000
vt 0.500000 0.750000
vt 0.666667 1.000000
vt 0.500000 1.000000
vt 0.500000 0.000000
vt 0.666667 0.000000
vt 0.666667 0.250000
vt 0.500000 0.250000
vt 0.833333 0.500000
vt 0.833333 0.750000
vt 0.833333 1.000000
vt 0.833333 0.000000
vt 0.833333 0.250000
vt 1.000000 0.500000
vt 1.000000 0.750000
vt 1.000000 1.000000
vt 1.000000 0.000000
vt 1.000000 0.250000
vt -0.000000 0.500000
vt 0.166667 0.500000
vt 0.166667 0.750000
vt -0.000000 0.750000
vt 0.166667 1.000000
vt -0.000000 1.000000
vt -0.000000 0.000000
vt 0.166667 0.000000
vt 0.166667 0.250000
vt -0.000000 0.250000
vt 0.333333 0.500000
vt 0.333333 0.750000
vt 0.333333 1.000000
vt 0.333333 0.000000
vt 0.333333 0.250000
s 0
f 25/36/21 29/37/21 30/38/21 26/39/21
f 26/39/22 30/38/22 31/40/22 27/41/22
f 27/42/23 31/43/23 32/44/23 28/45/23
f 28/45/24 32/44/24 29/37/24 25/36/24
f 29/37/25 33/46/25 34/47/25 30/38/25
f 30/38/26 34/47/26 35/48/26 31/40/26
f 31/43/27 35/49/27 36/50/27 32/44/27
f 32/44/28 36/50/28 33/46/28 29/37/28
f 33/46/29 37/51/29 38/52/29 34/47/29
f 34/47/30 38/52/30 39/53/30 35/48/30
f 35/49/31 39/54/31 40/55/31 36/50/31
f 36/50/32 40/55/32 37/51/32 33/46/32
f 37/56/33 41/57/33 42/58/33 38/59/33
f 38/59/34 42/58/34 43/60/34 39/61/34
f 39/62/35 43/63/35 44/64/35 40/65/35
f 40/65/36 44/64/36 41/57/36 37/56/36
f 41/57/26 45/66/26 46/67/26 42/58/26
f 42/58/25 46/67/25 47/68/25 43/60/25
f 43/63/28 47/69/28 48/70/28 44/64/28
f 44/64/27 48/70/27 45/66/27 41/57/27
f 45/66/37 25/36/37 26/39/37 46/67/37
f 46/67/38 26/39/38 27/41/38 47/68/38
f 47/69/39 27/42/39 28/45/39 48/70/39
f 48/70/40 28/45/40 25/36/40 45/66/40
o Torus.002
v 0.000000 -1.125000 0.000000
v -0.044194 -1.062500 -0.044194
v 0.000000 -1.000000 -0.000000
v 0.044194 -1.062500 0.044194
v -0.158929 -0.937500 0.158929
v -0.164850 -0.906250 0.076462
v -0.082382 -0.875000 0.082382
v -0.076462 -0.906250 0.164850
v -0.158929 -0.562500 0.158929
v -0.164850 -0.593750 0.076462
v -0.082382 -0.625000 0.082382
v -0.076462 -0.593750 0.164850
v -0.000000 -0.375000 0.000000
v -0.044194 -0.437500 -0.044194
v -0.000000 -0.500000 0.000000
v 0.044194 -0.437500 0.044194
v 0.158929 -0.562500 -0.158929
v 0.076462 -0.593750 -0.164850
v 0.082382 -0.625000 -0.082382
v 0.164850 -0.593750 -0.076462
v 0.158929 -0.937500 -0.158929
v 0.076462 -0.906250 -0.164850
v 0.082382 -0.875000 -0.082382
v 0.164850 -0.906250 -0.076462
vn -0.8115 -0.5750 -0.1045
vn -0.0753 0.5473 -0.8335
vn 0.8335 0.5473 0.0753
vn 0.1045 -0.5750 0.8115
vn -0.9974 -0.0000 0.0716
vn 0.0716 -0.0000 -0.9974
vn 0.9974 -0.0000 -0.0716
vn -0.0716 -0.0000 0.9974
vn -0.8115 0.5750 -0.1045
vn -0.0753 -0.5473 -0.8335
vn 0.8335 -0.5473 0.0753
vn 0.1045 0.5750 0.8115
vn -0.1045 0.5750 -0.8115
vn -0.8335 -0.5473 -0.0753
vn 0.0753 -0.5473 0.8335
vn 0.8115 0.5750 0.1045
vn -0.1045 -0.5750 -0.8115
vn -0.8335 0.5473 -0.0753
vn 0.0753 0.5473 0.8335
vn 0.8115 -0.5750 0.1045
vt 0.500000 0.500000
vt 0.666667 0.500000
vt 0.666667 0.750000
vt 0.500000 0.750000
vt 0.666667 1.000000
vt 0.500000 1.000000
vt 0.500000 0.000000
vt 0.666667 0.000000
vt 0.666667 0.250000
vt 0.500000 0.250000
vt 0.833333 0.500000
vt 0.833333 0.750000
vt 0.833333 1.000000
vt 0.833333 0.000000
vt 0.833333 0.250000
vt 1.000000 0.500000
vt 1.000000 0.750000
vt 1.000000 1.000000
vt 1.000000 0.000000
vt 1.000000 0.250000
vt -0.000000 0.500000
vt 0.166667 0.500000
vt 0.166667 0.750000
vt -0.000000 0.750000
vt 0.166667 1.000000
vt -0.000000 1.000000
vt -0.000000 0.000000
vt 0.166667 0.000000
vt 0.166667 0.250000
vt -0.000000 0.250000
vt 0.333333 0.500000
vt 0.333333 0.750000
vt 0.333333 1.000000
vt 0.333333 0.000000
vt 0.333333 0.250000
s 0
f 49/71/41 53/72/41 54/73/41 50/74/41
f 50/74/42 54/73/42 55/75/42 51/76/42
f 51/77/43 55/78/43 56/79/43 52/80/43
f 52/80/44 56/79/44 53/72/44 49/71/44
f 53/72/45 57/81/45 58/82/45 54/73/45
f 54/73/46 58/82/46 59/83/46 55/75/46
f 55/78/47 59/84/47 60/85/47 56/79/47
f 56/79/48 60/85/48 57/81/48 53/72/48
f 57/81/49 61/86/49 62/87/49 58/82/49
f 58/82/50 62/87/50 63/88/50 59/83/50
f 59/84/51 63/89/51 64/90/51 60/85/51
f 60/85/52 64/90/52 61/86/52 57/81/52
f 61/91/53 65/92/53 66/93/53 62/94/53
f 62/94/54 66/93/54 67/95/54 63/96/54
f 63/97/55 67/98/55 68/99/55 64/100/55
f 64/100/56 68/99/56 65/92/56 61/91/56
f 65/92/46 69/101/46 70/102/46 66/93/46
f 66/93/45 70/102/45 71/103/45 67/95/45
f 67/98/48 71/104/48 72/105/48 68/99/48
f 68/99/47 72/105/47 69/101/47 65/92/47
f 69/101/57 49/71/57 50/74/57 70/102/57
f 70/102/58 50/74/58 51/76/58 71/103/58
f 71/104/59 51/77/59 52/80/59 72/105/59
f 72/105/60 52/80/60 49/71/60 69/101/60
o Torus.003
v 0.000000 0.375000 0.000000
v 0.044194 0.437500 -0.044194
v 0.000000 0.500000 -0.000000
v -0.044194 0.437500 0.044194
v -0.158929 0.562500 -0.158929
v -0.076462 0.593750 -0.164850
v -0.082382 0.625000 -0.082382
v -0.164850 0.593750 -0.076462
v -0.158929 0.937500 -0.158929
v -0.076462 0.906250 -0.164850
v -0.082382 0.875000 -0.082382
v -0.164850 0.906250 -0.076462
v -0.000000 1.125000 -0.000000
v 0.044194 1.062500 -0.044194
v -0.000000 1.000000 -0.000000
v -0.044194 1.062500 0.044194
v 0.158929 0.937500 0.158929
v 0.164850 0.906250 0.076462
v 0.082382 0.875000 0.082382
v 0.076462 0.906250 0.164850
v 0.158929 0.562500 0.158929
v 0.164850 0.593750 0.076462
v 0.082382 0.625000 0.082382
v 0.076462 0.593750 0.164850
vn 0.1045 -0.5750 -0.8115
vn 0.8335 0.5473 -0.0753
vn -0.0753 0.5473 0.8335
vn -0.8115 -0.5750 0.1045
vn -0.0716 -0.0000 -0.9974
vn 0.9974 -0.0000 0.0716
vn 0.0716 -0.0000 0.9974
vn -0.9974 -0.0000 -0.0716
vn 0.1045 0.5750 -0.8115
vn 0.8335 -0.5473 -0.0753
vn -0.0753 -0.5473 0.8335
vn -0.8115 0.5750 0.1045
vn 0.8115 0.5750 -0.1045
vn 0.0753 -0.5473 -0.8335
vn -0.8335 -0.5473 0.0753
vn -0.1045 0.5750 0.8115
vn 0.8115 -0.5750 -0.1045
vn 0.0753 0.5473 -0.8335
vn -0.8335 0.5473 0.0753
vn -0.1045 -0.5750 0.8115
vt 0.500000 0.500000
vt 0.666667 0.500000
vt 0.666667 0.750000
vt 0.500000 0.750000
vt 0.666667 1.000000
vt 0.500000 1.000000
vt 0.500000 0.000000
vt 0.666667 0.000000
vt 0.666667 0.250000
vt 0.500000 0.250000
vt 0.833333 0.500000
vt 0.833333 0.750000
vt 0.833333 1.000000
vt 0.833333 0.000000
vt 0.833333 0.250000
vt 1.000000 0.500000
vt 1.000000 0.750000
vt 1.000000 1.000000
vt 1.000000 0.000000
vt 1.000000 0.250000
vt -0.000000 0.500000
vt 0.166667 0.500000
vt 0.166667 0.750000
vt -0.000000 0.750000
vt 0.166667 1.000000
vt -0.000000 1.000000
vt -0.000000 0.000000
vt 0.166667 0.000000
vt 0.166667 0.250000
vt -0.000000 0.250000
vt 0.333333 0.500000
vt 0.333333 0.750000
vt 0.333333 1.000000
vt 0.333333 0.000000
vt 0.333333 0.250000
s 0
f 73/106/61 77/107/61 78/108/61 74/109/61
f 74/109/62 78/108/62 79/110/62 75/111/62
f 75/112/63 79/113/63 80/114/63 76/115/63
f 76/115/64 80/114/64 77/107/64 73/106/64
f 77/107/65 81/116/65 82/117/65 78/108/65
f 78/108/66 82/117/66 83/118/66 79/110/66
f 79/113/67 83/119/67 84/120/67 80/114/67
f 80/114/68 84/120/68 81/116/68 77/107/68
f 81/116/69 85/121/69 86/122/69 82/117/69
f 82/117/70 86/122/70 87/123/70 83/118/70
f 83/119/71 87/124/71 88/125/71 84/120/71
f 84/120/72 88/125/72 85/121/72 81/116/72
f 85/126/73 89/127/73 90/128/73 86/129/73
f 86/129/74 90/128/74 91/130/74 87/131/74
f 87/132/75 91/133/75 92/134/75 88/135/75
f 88/135/76 92/134/76 89/127/76 85/126/76
f 89/127/66 93/136/66 94/137/66 90/128/66
f 90/128/65 94/137/65 95/138/65 91/130/65
f 91/133/68 95/139/68 96/140/68 92/134/68
f 92/134/67 96/140/67 93/136/67 89/127/67
f 93/136/77 73/106/77 74/109/77 94/137/77
f 94/137/78 74/109/78 75/111/78 95/138/78
f 95/139/79 75/112/79 76/115/79 96/140/79
f 96/140/80 76/115/80 73/106/80 93/136/80
