# Blender 4.2.3 LTS
# www.blender.org
mtllib grenade_launcher.mtl
o Cylinder
v 0.000000 0.250000 -2.000000
v 0.000000 0.250000 0.000000
v 0.216506 0.125000 -2.000000
v 0.216506 0.125000 0.000000
v 0.216506 -0.125000 -2.000000
v 0.216506 -0.125000 -0.000000
v 0.000000 -0.250000 -2.000000
v 0.000000 -0.250000 -0.000000
v -0.216506 -0.125000 -2.000000
v -0.216506 -0.125000 -0.000000
v -0.216506 0.125000 -2.000000
v -0.216506 0.125000 0.000000
v -0.200000 -0.300000 1.200000
v -0.300000 -0.000000 1.200000
v -0.200000 -0.600000 -0.600000
v -0.300000 0.000000 -1.200000
v 0.200000 -0.300000 1.200000
v 0.300000 -0.000000 1.200000
v 0.200000 -0.600000 -0.600000
v 0.300000 0.000000 -1.200000
v -0.300000 -0.000000 0.700000
v -0.300000 0.300000 0.700000
v -0.300000 0.000000 -0.300000
v -0.300000 0.300000 -0.300000
v 0.300000 -0.000000 0.700000
v 0.300000 0.300000 0.700000
v 0.300000 0.000000 -0.300000
v 0.300000 0.300000 -0.300000
v -0.125000 -0.825000 -1.075000
v -0.125000 -0.075000 -1.275000
v -0.125000 -0.825000 -1.325000
v -0.125000 -0.075000 -1.625000
v 0.125000 -0.825000 -1.075000
v 0.125000 -0.075000 -1.275000
v 0.125000 -0.825000 -1.325000
v 0.125000 -0.075000 -1.625000
vn 0.5000 0.8660 -0.0000
vn 1.0000 -0.0000 -0.0000
vn 0.5000 -0.8660 -0.0000
vn -0.5000 -0.8660 -0.0000
vn -1.0000 -0.0000 -0.0000
vn -0.5000 0.8660 -0.0000
vn -0.0000 -0.0000 -1.0000
vn -0.9864 -0.1644 -0.0000
vn -0.0000 -0.7071 -0.7071
vn 0.9864 -0.1644 -0.0000
vn -0.0000 -0.0000 1.0000
vn -0.0000 -0.9864 0.1644
vn -0.0000 1.0000 -0.0000
vn -0.9474 -0.3158 0.0526
vn 0.9474 -0.3158 0.0526
vn -0.0000 -0.3714 -0.9285
vn -0.0000 0.2577 0.9662
vn -0.0000 -1.0000 -0.0000
vt 0.604626 0.021007
vt 0.604626 0.377576
vt 0.560055 0.377576
vt 0.560055 0.021007
vt 0.515484 0.377576
vt 0.515484 0.021007
vt 0.470913 0.377576
vt 0.470913 0.021007
vt 0.738340 0.021007
vt 0.738340 0.377576
vt 0.693769 0.377576
vt 0.693769 0.021007
vt 0.649198 0.377576
vt 0.649198 0.021007
vt 0.509513 0.757718
vt 0.548113 0.780004
vt 0.548113 0.824575
vt 0.509513 0.846860
vt 0.470913 0.824575
vt 0.470913 0.780004
vt 0.169992 0.448890
vt 0.169992 0.021007
vt 0.278438 0.127978
vt 0.110149 0.021007
vt 0.127978 0.172286
vt 0.021007 0.172286
vt 0.038836 0.021007
vt 0.320453 0.127978
vt 0.428899 0.021007
vt 0.428899 0.448890
vt 0.038836 0.653654
vt 0.021007 0.600169
vt 0.127978 0.600169
vt 0.110149 0.653654
vt 0.110149 0.978993
vt 0.038836 0.978993
vt 0.383933 0.722907
vt 0.330448 0.722907
vt 0.330448 0.544622
vt 0.383933 0.544622
vt 0.330448 0.491137
vt 0.223477 0.544622
vt 0.223477 0.491137
vt 0.169992 0.544622
vt 0.223477 0.722907
vt 0.169992 0.722907
vt 0.223477 0.776392
vt 0.330448 0.776392
vt 0.226370 0.449123
vt 0.372521 0.449123
vt 0.636686 0.605965
vt 0.508929 0.659153
vt 0.470913 0.609671
vt 0.609531 0.570621
vt 0.521793 0.456420
vt 0.557137 0.429265
vt 0.644876 0.543467
vt 0.718324 0.419590
vt 0.756340 0.469072
vt 0.672030 0.578811
vt 0.756340 0.688549
vt 0.720995 0.715704
s 0
f 1/1/1 2/2/1 4/3/1 3/4/1
f 3/4/2 4/3/2 6/5/2 5/6/2
f 5/6/3 6/5/3 8/7/3 7/8/3
f 7/9/4 8/10/4 10/11/4 9/12/4
f 9/12/5 10/11/5 12/13/5 11/14/5
f 11/14/6 12/13/6 2/2/6 1/1/6
f 1/15/7 3/16/7 5/17/7 7/18/7 9/19/7 11/20/7
f 14/21/8 16/22/8 15/23/8
f 15/24/9 16/25/9 20/26/9 19/27/9
f 19/28/10 20/29/10 18/30/10
f 17/31/11 18/32/11 14/33/11 13/34/11
f 15/35/12 19/36/12 17/31/12 13/34/12
f 20/26/13 16/25/13 14/33/13 18/32/13
f 21/37/5 22/38/5 24/39/5 23/40/5
f 23/41/7 24/39/7 28/42/7 27/43/7
f 27/44/2 28/42/2 26/45/2 25/46/2
f 25/47/11 26/45/11 22/38/11 21/48/11
f 28/42/13 24/39/13 22/38/13 26/45/13
f 13/49/14 14/21/14 15/23/14
f 17/50/15 19/28/15 18/30/15
f 29/51/5 30/52/5 32/53/5 31/54/5
f 31/54/16 32/55/16 36/56/16 35/57/16
f 35/57/2 36/58/2 34/59/2 33/60/2
f 33/60/17 34/61/17 30/62/17 29/51/17
f 31/54/18 35/57/18 33/60/18 29/51/18
