# Blender 4.2.1 LTS
# www.blender.org
mtllib shipping_crate_20ft.mtl
o Exterior
v 1.250000 1.300000 -3.000000
v 1.250000 -1.300000 -3.000000
v 1.250000 1.300000 3.000000
v 1.250000 -1.300000 3.000000
v -1.250000 1.300000 -3.000000
v -1.250000 -1.300000 -3.000000
v -1.250000 1.300000 3.000000
v -1.250000 -1.300000 3.000000
v 1.175000 -1.195000 3.000000
v 1.175000 1.195000 3.000000
v -1.175000 -1.195000 3.000000
v -1.175000 1.195000 3.000000
v -1.175000 -1.195000 -3.000000
v -1.175000 1.195000 -3.000000
v 1.175000 -1.195000 -3.000000
v 1.175000 1.195000 -3.000000
v 1.250000 1.300000 0.000000
v 0.000000 1.300000 -3.000000
v -1.250000 1.300000 0.000000
v 0.000000 1.300000 3.000000
v 0.000000 -1.195000 3.000000
v 0.000000 -1.300000 3.000000
v 1.250000 0.000000 3.000000
v 0.000000 1.195000 3.000000
v 1.175000 0.000000 3.000000
v -1.250000 0.000000 3.000000
v -1.175000 0.000000 3.000000
v -1.250000 -1.300000 0.000000
v -1.250000 0.000000 -3.000000
v 0.000000 -1.300000 -3.000000
v 1.250000 -1.300000 0.000000
v 1.250000 0.000000 -3.000000
v 1.175000 0.000000 -3.000000
v 0.000000 1.195000 -3.000000
v -1.175000 0.000000 -3.000000
v 0.000000 -1.195000 -3.000000
v -1.175000 1.195000 0.000000
v -1.175000 -1.195000 0.000000
v 1.175000 -1.195000 0.000000
v 1.175000 1.195000 0.000000
v 0.000000 1.195000 0.000000
v 0.000000 -1.195000 0.000000
v 1.175000 0.000000 0.000000
v -1.175000 0.000000 0.000000
v 1.250000 0.000000 0.000000
v 0.000000 -1.300000 0.000000
v -1.250000 0.000000 0.000000
v 0.000000 1.300000 0.000000
v 1.250000 1.300000 -1.500000
v -1.250000 1.300000 -1.500000
v -1.250000 -1.300000 -1.500000
v 1.250000 -1.300000 -1.500000
v 1.250000 0.000000 -1.500000
v 0.000000 -1.300000 -1.500000
v -1.250000 0.000000 -1.500000
v 0.000000 1.300000 -1.500000
v 1.250000 1.300000 1.500000
v -1.250000 1.300000 1.500000
v -1.250000 -1.300000 1.500000
v 1.250000 -1.300000 1.500000
v 1.250000 0.000000 1.500000
v 0.000000 -1.300000 1.500000
v -1.250000 0.000000 1.500000
v 0.000000 1.300000 1.500000
v -1.175000 1.195000 -1.500000
v -1.175000 -1.195000 -1.500000
v 1.175000 -1.195000 -1.500000
v 1.175000 1.195000 -1.500000
v 0.000000 1.195000 -1.500000
v 0.000000 -1.195000 -1.500000
v 1.175000 0.000000 -1.500000
v -1.175000 0.000000 -1.500000
v -1.175000 1.195000 1.500000
v -1.175000 -1.195000 1.500000
v 1.175000 -1.195000 1.500000
v 1.175000 1.195000 1.500000
v 0.000000 1.195000 1.500000
v 0.000000 -1.195000 1.500000
v 1.175000 0.000000 1.500000
v -1.175000 0.000000 1.500000
vn -0.0000 1.0000 -0.0000
vn -0.0000 -0.0000 1.0000
vn -1.0000 -0.0000 -0.0000
vn -0.0000 -1.0000 -0.0000
vn 1.0000 -0.0000 -0.0000
vn -0.0000 -0.0000 -1.0000
vt 0.537500 0.125000
vt 0.433333 0.125000
vt 0.433333 0.000000
vt 0.537500 0.000000
vt 0.894167 0.508750
vt 0.894167 0.500000
vt 0.998333 0.500000
vt 0.992083 0.508750
vt 0.998333 0.608333
vt 0.998333 0.716667
vt 0.992083 0.707917
vt 0.992083 0.608333
vt 0.108333 0.125000
vt 0.000000 0.125000
vt 0.000000 0.000000
vt 0.108333 0.000000
vt 0.745833 0.125000
vt 0.641667 0.125000
vt 0.641667 0.000000
vt 0.745833 0.000000
vt 0.325000 0.125000
vt 0.216667 0.125000
vt 0.216667 -0.000000
vt 0.325000 0.000000
vt 0.998333 0.825000
vt 0.998333 0.933333
vt 0.992083 0.924583
vt 0.992083 0.825000
vt 0.894167 0.716667
vt 0.998333 0.716667
vt 0.992083 0.725417
vt 0.894167 0.725417
vt 0.099583 0.875000
vt 0.199167 0.875000
vt 0.199167 1.000000
vt 0.099583 1.000000
vt 0.298750 0.875000
vt 0.298750 1.000000
vt 0.199167 1.000000
vt 0.199167 0.875000
vt 0.496250 0.625000
vt 0.496250 0.500000
vt 0.594167 0.500000
vt 0.594167 0.625000
vt 0.692083 0.875000
vt 0.790000 0.875000
vt 0.790000 1.000000
vt 0.692083 1.000000
vt 0.796250 0.608333
vt 0.790000 0.608333
vt 0.790000 0.500000
vt 0.796250 0.508750
vt 0.894167 0.707917
vt 0.894167 0.716667
vt 0.790000 0.716667
vt 0.796250 0.707917
vt 0.894167 0.933333
vt 0.790000 0.933333
vt 0.796250 0.924583
vt 0.894167 0.924583
vt 0.790000 0.825000
vt 0.790000 0.716667
vt 0.796250 0.725417
vt 0.796250 0.825000
vt 0.594167 0.875000
vt 0.594167 1.000000
vt 0.594167 0.625000
vt 0.692083 0.625000
vt 0.692083 0.750000
vt 0.594167 0.750000
vt 0.790000 0.625000
vt 0.790000 0.750000
vt 0.496250 0.875000
vt 0.496250 0.750000
vt 0.594167 0.750000
vt 0.594167 0.875000
vt 0.398333 0.875000
vt 0.398333 0.750000
vt 0.398333 0.625000
vt 0.398333 0.500000
vt 0.298750 0.625000
vt 0.298750 0.750000
vt 0.199167 0.750000
vt 0.199167 0.625000
vt 0.398333 0.625000
vt 0.398333 0.750000
vt 0.398333 0.875000
vt 0.398333 1.000000
vt 0.000000 0.875000
vt 0.000000 1.000000
vt 0.000000 0.625000
vt 0.099583 0.625000
vt 0.099583 0.750000
vt 0.000000 0.750000
vt 0.199167 0.625000
vt 0.199167 0.750000
vt 0.433333 0.000000
vt 0.433333 0.375000
vt 0.325000 0.375000
vt 0.325000 0.250000
vt 0.433333 0.250000
vt 0.216667 0.375000
vt 0.216667 0.250000
vt 0.850000 0.125000
vt 0.850000 0.000000
vt 0.850000 0.375000
vt 0.745833 0.375000
vt 0.745833 0.250000
vt 0.850000 0.250000
vt 0.641667 0.375000
vt 0.641667 0.250000
vt 0.216667 0.125000
vt 0.216667 0.000000
vt 0.216667 0.375000
vt 0.108333 0.375000
vt 0.108333 0.250000
vt 0.216667 0.250000
vt 0.000000 0.375000
vt 0.000000 0.250000
vt 0.537500 0.375000
vt 0.537500 0.250000
vt 0.537500 0.500000
vt 0.433333 0.500000
vt 0.641667 0.500000
vt 0.745833 0.500000
vt 0.850000 0.500000
vt 0.325000 0.500000
vt 0.216667 0.500000
vt 0.433333 0.500000
vt 0.108333 0.500000
vt 0.000000 0.500000
vt 0.216667 0.500000
vt 0.398333 0.500000
vt 0.298750 0.500000
vt 0.199167 0.500000
vt 0.398333 1.000000
vt 0.496250 1.000000
vt 0.594167 1.000000
vt 0.099583 0.500000
vt 0.199167 0.500000
vt 0.000000 0.500000
vt 0.692083 0.500000
vt 0.594167 0.500000
s 0
usemtl Material
f 64/1/1 58/2/1 7/3/1 20/4/1
f 24/5/2 20/6/2 7/7/2 12/8/2
f 26/9/2 8/10/2 11/11/2 27/12/2
f 55/13/3 50/14/3 5/15/3 29/16/3
f 62/17/4 60/18/4 4/19/4 22/20/4
f 61/21/5 57/22/5 3/23/5 23/24/5
f 32/25/6 2/26/6 15/27/6 33/28/6
f 18/29/6 1/30/6 16/31/6 34/32/6
f 72/33/5 66/34/5 13/35/5 35/36/5
f 79/37/3 25/38/3 10/39/3 76/40/3
f 78/41/1 21/42/1 9/43/1 75/44/1
f 69/45/4 65/46/4 14/47/4 34/48/4
f 25/49/2 23/50/2 3/51/2 10/52/2
f 21/53/2 22/54/2 4/55/2 9/56/2
f 30/57/6 6/58/6 13/59/6 36/60/6
f 29/61/6 5/62/6 14/63/6 35/64/6
f 6/58/6 29/61/6 35/64/6 13/59/6
f 2/26/6 30/57/6 36/60/6 15/27/6
f 11/11/2 8/10/2 22/54/2 21/53/2
f 9/56/2 4/55/2 23/50/2 25/49/2
f 68/65/4 69/45/4 34/48/4 16/66/4
f 76/67/4 77/68/4 41/69/4 40/70/4
f 77/68/4 73/71/4 37/72/4 41/69/4
f 70/73/1 42/74/1 39/75/1 67/76/1
f 66/77/1 38/78/1 42/74/1 70/73/1
f 74/79/1 11/80/1 21/42/1 78/41/1
f 71/81/3 43/82/3 40/83/3 68/84/3
f 67/85/3 39/86/3 43/82/3 71/81/3
f 75/87/3 9/88/3 25/38/3 79/37/3
f 65/89/5 72/33/5 35/36/5 14/90/5
f 73/91/5 80/92/5 44/93/5 37/94/5
f 80/92/5 74/95/5 38/96/5 44/93/5
f 5/62/6 18/29/6 34/32/6 14/63/6
f 1/30/6 32/25/6 33/28/6 16/31/6
f 60/2/5 61/21/5 23/24/5 4/97/5
f 52/98/5 53/99/5 45/100/5 31/101/5
f 53/99/5 49/102/5 17/103/5 45/100/5
f 59/104/4 62/17/4 22/20/4 8/105/4
f 51/106/4 54/107/4 46/108/4 28/109/4
f 54/107/4 52/110/4 31/111/4 46/108/4
f 51/112/3 55/13/3 29/16/3 6/113/3
f 59/114/3 63/115/3 47/116/3 28/117/3
f 63/115/3 58/118/3 19/119/3 47/116/3
f 7/7/2 26/9/2 27/12/2 12/8/2
f 10/52/2 3/51/2 20/6/2 24/5/2
f 57/18/1 64/1/1 20/4/1 3/19/1
f 49/110/1 56/120/1 48/121/1 17/111/1
f 56/120/1 50/98/1 19/101/1 48/121/1
f 18/122/1 5/123/1 50/98/1 56/120/1
f 1/124/1 18/122/1 56/120/1 49/110/1
f 28/117/3 47/116/3 55/13/3 51/112/3
f 30/125/4 2/124/4 52/110/4 54/107/4
f 6/126/4 30/125/4 54/107/4 51/106/4
f 32/127/5 1/128/5 49/102/5 53/99/5
f 2/129/5 32/127/5 53/99/5 52/98/5
f 47/116/3 19/119/3 50/14/3 55/13/3
f 17/111/1 48/121/1 64/1/1 57/18/1
f 26/130/3 7/131/3 58/118/3 63/115/3
f 8/132/3 26/130/3 63/115/3 59/114/3
f 28/109/4 46/108/4 62/17/4 59/104/4
f 31/101/5 45/100/5 61/21/5 60/2/5
f 45/100/5 17/103/5 57/22/5 61/21/5
f 46/108/4 31/111/4 60/18/4 62/17/4
f 48/121/1 19/101/1 58/2/1 64/1/1
f 37/94/5 44/93/5 72/33/5 65/89/5
f 15/133/3 67/85/3 71/81/3 33/134/3
f 33/134/3 71/81/3 68/84/3 16/135/3
f 13/136/1 66/77/1 70/73/1 36/137/1
f 36/137/1 70/73/1 67/76/1 15/138/1
f 40/70/4 41/69/4 69/45/4 68/65/4
f 41/69/4 37/72/4 65/46/4 69/45/4
f 44/93/5 38/96/5 66/34/5 72/33/5
f 27/139/5 11/140/5 74/95/5 80/92/5
f 12/141/5 27/139/5 80/92/5 73/91/5
f 39/86/3 75/87/3 79/37/3 43/82/3
f 38/78/1 74/79/1 78/41/1 42/74/1
f 24/142/4 12/51/4 73/71/4 77/68/4
f 10/143/4 24/142/4 77/68/4 76/67/4
f 42/74/1 78/41/1 75/44/1 39/75/1
f 43/82/3 79/37/3 76/40/3 40/83/3
